<svg width="20" height="20" viewBox="0 0 20 20" fill="none" xmlns="http://www.w3.org/2000/svg">
<path d="M14.1666 17.5C14.3877 17.5 14.5996 17.4122 14.7559 17.2559C14.9122 17.0996 15 16.8876 15 16.6666V12.2083C15 11.8275 15.2633 11.505 15.6058 11.3408C16.315 11.0025 16.8818 10.4246 17.2063 9.70904C17.5309 8.99348 17.5922 8.1863 17.3795 7.42993C17.1668 6.67356 16.6938 6.01663 16.0439 5.57508C15.394 5.13353 14.609 4.93575 13.8275 5.01663C13.5056 4.26847 12.9715 3.63104 12.2913 3.18316C11.611 2.73528 10.8144 2.49658 9.99998 2.49658C9.18552 2.49658 8.38892 2.73528 7.70867 3.18316C7.02842 3.63104 6.49434 4.26847 6.17248 5.01663C5.3913 4.93631 4.60684 5.13438 3.95742 5.57591C3.308 6.01744 2.83532 6.67408 2.62272 7.43005C2.41011 8.18602 2.47124 8.99278 2.79531 9.70809C3.11939 10.4234 3.68561 11.0013 4.39414 11.34C4.73664 11.505 4.99998 11.8275 4.99998 12.2075V16.6666C4.99998 16.8876 5.08777 17.0996 5.24405 17.2559C5.40033 17.4122 5.6123 17.5 5.83331 17.5H14.1666Z" stroke="#4A7C72" stroke-width="1.66667" stroke-linecap="round" stroke-linejoin="round"/>
<path d="M5 14.1666H15" stroke="#4A7C72" stroke-width="1.66667" stroke-linecap="round" stroke-linejoin="round"/>
</svg>
